<?xml version="1.0" encoding="UTF-8"?>
<svg id="_레이어_2" data-name="레이어 2" xmlns="http://www.w3.org/2000/svg" viewBox="0 0 23.97 21">
  <g id="_레이어_1-2" data-name="레이어 1">
    <g>
      <path d="m23.85,3.77c-.1-.12-.24-.19-.4-.19H4.27l-.43-3.17c-.05-.24-.26-.41-.51-.41H.52C.23,0,0,.23,0,.52s.23.52.52.52h2.39l.43,3.17s0,0,0,0l2.06,11.35c.04.24.26.42.51.42h15.48c.25,0,.46-.18.51-.42l2.06-11.36c.03-.15-.01-.31-.11-.42Zm-2.89,11.17H6.34l-1.88-10.32h18.38l-1.88,10.32Z" style="fill: #fff;"/>
      <path d="m9.01,17.13c-1.07,0-1.94.87-1.94,1.94s.87,1.94,1.94,1.94,1.94-.87,1.94-1.94-.87-1.94-1.94-1.94Zm0,3.1c-.64,0-1.16-.52-1.16-1.16s.52-1.16,1.16-1.16,1.16.52,1.16,1.16-.52,1.16-1.16,1.16Z" style="fill: #fff;"/>
      <path d="m18.3,17.13c-1.07,0-1.94.87-1.94,1.94s.87,1.94,1.94,1.94,1.94-.87,1.94-1.94-.87-1.94-1.94-1.94Zm0,3.1c-.64,0-1.16-.52-1.16-1.16s.52-1.16,1.16-1.16,1.16.52,1.16,1.16-.52,1.16-1.16,1.16Z" style="fill: #fff;"/>
    </g>
  </g>
</svg>