<?xml version="1.0" encoding="utf-8"?>
<!-- Generator: Adobe Illustrator 27.7.0, SVG Export Plug-In . SVG Version: 6.00 Build 0)  -->
<svg version="1.1" id="_레이어_2" xmlns="http://www.w3.org/2000/svg" xmlns:xlink="http://www.w3.org/1999/xlink" x="0px"
	 y="0px" viewBox="0 0 22 22" style="enable-background:new 0 0 22 22;" xml:space="preserve">
<style type="text/css">
	.st0{fill:#FFFFFF;}
</style>
<g id="_레이어_1-2">
	<path class="st0" d="M12.4,11l9.3-9.3c0.4-0.4,0.4-1,0-1.4s-1-0.4-1.4,0L11,9.6L1.7,0.3c-0.4-0.4-1-0.4-1.4,0s-0.4,1,0,1.4L9.6,11
		l-9.3,9.3c-0.4,0.4-0.4,1,0,1.4C0.5,21.9,0.7,22,1,22s0.5-0.1,0.7-0.3l9.3-9.3l9.3,9.3c0.2,0.2,0.5,0.3,0.7,0.3s0.5-0.1,0.7-0.3
		c0.4-0.4,0.4-1,0-1.4L12.4,11L12.4,11z"/>
</g>
</svg>
