<?xml version="1.0" encoding="UTF-8"?>
<svg id="_레이어_2" data-name="레이어 2" xmlns="http://www.w3.org/2000/svg" xmlns:xlink="http://www.w3.org/1999/xlink" viewBox="0 0 80 23.43">
  <defs>
    <clipPath id="clippath">
      <rect width="80" height="23.43" style="fill: none;"/>
    </clipPath>
  </defs>
  <g id="_레이어_1-2" data-name="레이어 1">
    <g style="clip-path: url(#clippath); fill: none;">
      <g>
        <path d="m16.81,16.18c0,1.02-.22,2.01-.64,2.92-.42.91-1.06,1.71-1.87,2.37-1.51,1.24-3.57,1.96-5.66,1.96-3.79,0-6.94-2.07-8.2-5.46-.17-.44-.28-.85-.42-1.41l-.03-.14h4.32l.03.11c.22.83.56,1.49,1.06,1.99.89.91,2.04,1.38,3.26,1.38.28,0,.64,0,.98-.08,1.09-.17,2.01-.77,2.54-1.68.53-.85.61-1.87.28-2.87-.59-1.57-2.62-2.29-4.38-2.92-.45-.17-.86-.3-1.23-.47-3.46-1.3-5.21-3.25-5.21-5.79C1.65,3.75,3.1,1.76,5.52.74,9.2-.78,13.38.05,15.98,2.81l.08.11-2.87,2.32-.08-.08c-1.14-1.1-2.04-1.52-3.54-1.57-.78-.03-1.92.08-2.79.74-.64.47-.95,1.1-.95,1.82,0,.99.86,1.82,2.57,2.45l.64.25c3.82,1.35,7.78,2.78,7.78,7.33Z" style="fill: #fff;"/>
        <path d="m25.46.47h-4.24v22.52h4.24V.47Z" style="fill: #fff;"/>
        <path d="m57.94.47h-4.24v22.52h4.24V.47Z" style="fill: #fff;"/>
        <path d="m80,19.38v3.61h-18.07l.11-.19,10.65-18.72h-9.26V.47h16.12l-10.76,18.91h11.21Z" style="fill: #fff;"/>
        <path d="m45.65,3.39c-1.28-1.05-2.7-1.79-4.29-2.23-1.42-.44-3.68-.66-6.27-.66h-3.9v22.52h3.9c2.62,0,4.85-.25,6.27-.66,1.59-.44,3.01-1.19,4.29-2.23,2.45-1.98,3.62-4.74,3.62-8.35s-1.17-6.4-3.62-8.38Zm-2.65,13.9c-.78.72-1.67,1.24-2.65,1.54l-.08.03c-.95.33-2.68.52-4.66.52h-.2V4.11h.22c1.95,0,3.71.19,4.66.52l.08.03c.98.3,1.84.83,2.62,1.54,1.42,1.32,2.06,3.03,2.06,5.57-.03,2.51-.64,4.22-2.06,5.51Z" style="fill: #fff;"/>
      </g>
    </g>
  </g>
</svg>