<?xml version="1.0" encoding="UTF-8"?>
<svg id="_레이어_2" data-name="레이어 2" xmlns="http://www.w3.org/2000/svg" viewBox="0 0 20 20">
  <g id="_레이어_1-2" data-name="레이어 1">
    <path d="m19.85,19.15l-5.95-5.95c2.75-3.12,2.65-7.9-.33-10.88C10.47-.78,5.43-.77,2.33,2.33-.78,5.43-.78,10.47,2.33,13.57c1.5,1.5,3.5,2.33,5.62,2.33,1.96,0,3.8-.71,5.26-2l5.95,5.95c.1.1.22.15.35.15s.25-.05.35-.15c.19-.19.19-.51,0-.7ZM12.87,3.03c2.71,2.71,2.71,7.13,0,9.84-1.31,1.31-3.06,2.04-4.92,2.04s-3.61-.72-4.92-2.04C.32,10.16.32,5.74,3.03,3.03,4.39,1.67,6.17.99,7.95.99s3.56.68,4.92,2.03Z" style="fill: #fff;"/>
  </g>
</svg>