<?xml version="1.0" encoding="UTF-8"?>
<svg id="_레이어_2" data-name="레이어 2" xmlns="http://www.w3.org/2000/svg" viewBox="0 0 42 38.65">
  <g id="_레이어_1-2" data-name="레이어 1">
    <g>
      <path d="m41,24.26c-.55,0-1,.45-1,1v11.39H2v-11.39c0-.55-.45-1-1-1s-1,.45-1,1v12.39c0,.55.45,1,1,1h40c.55,0,1-.45,1-1v-12.39c0-.55-.45-1-1-1Z"/>
      <path d="m20.29,30.64c.2.2.45.29.71.29s.51-.1.71-.29l10.61-10.61c.39-.39.39-1.02,0-1.41s-1.02-.39-1.41,0l-8.9,8.9V1c0-.55-.45-1-1-1s-1,.45-1,1v26.52l-8.9-8.9c-.39-.39-1.02-.39-1.41,0s-.39,1.02,0,1.41l10.61,10.61Z"/>
    </g>
  </g>
</svg>