<?xml version="1.0" encoding="UTF-8"?>
<svg id="_레이어_2" data-name="레이어 2" xmlns="http://www.w3.org/2000/svg" viewBox="0 0 42 38.65">
  <g id="_레이어_1-2" data-name="레이어 1">
    <g>
      <path d="m30.5,2c-1.62,0-3.16.39-4.57,1.15-1.44.78-2.83,2.03-4.14,3.71-.19.25-.49.42-.81.39-.32,0-.61-.16-.79-.42-1.11-1.57-2.42-2.78-3.89-3.6-1.46-.81-3.07-1.22-4.79-1.22-2.72,0-4.93.89-6.77,2.73-1.84,1.84-2.73,4.07-2.73,6.82,0,1.41.26,2.82.76,4.21.51,1.4,1.44,3.01,2.74,4.77,1.33,1.8,3.15,3.88,5.42,6.19,2.28,2.32,5.21,5.13,8.71,8.34l1.37,1.24,1.38-1.25c3.49-3.21,6.42-6.01,8.7-8.34,2.26-2.31,4.08-4.39,5.42-6.19,1.3-1.76,2.23-3.37,2.74-4.77.51-1.38.76-2.8.76-4.21,0-2.75-.89-4.99-2.73-6.82-1.84-1.84-4.05-2.73-6.77-2.73Z" style="fill: #e23d3d;"/>
      <path d="m30.5,0c-1.96,0-3.82.47-5.53,1.4-1.38.75-2.7,1.84-3.94,3.25-1.11-1.33-2.37-2.39-3.77-3.17-1.76-.98-3.7-1.48-5.76-1.48-3.23,0-5.98,1.11-8.18,3.31C1.12,5.51,0,8.28,0,11.55c0,1.64.3,3.29.89,4.89.58,1.58,1.59,3.36,3.01,5.27,1.39,1.88,3.27,4.03,5.6,6.4,2.31,2.35,5.26,5.18,8.79,8.42l2.05,1.85c.19.17.43.26.67.26s.48-.09.67-.26l2.06-1.86c3.52-3.23,6.48-6.06,8.78-8.41,2.33-2.37,4.21-4.53,5.6-6.4,1.42-1.92,2.43-3.69,3.01-5.27.59-1.6.89-3.25.89-4.89,0-3.27-1.12-6.04-3.32-8.24-2.2-2.2-4.95-3.31-8.18-3.31Zm8.74,15.76c-.52,1.4-1.44,3.01-2.74,4.77-1.33,1.8-3.15,3.88-5.42,6.19-2.28,2.32-5.21,5.13-8.7,8.34l-1.38,1.25-1.37-1.24c-3.5-3.21-6.43-6.02-8.71-8.34-2.26-2.31-4.08-4.39-5.42-6.19-1.3-1.76-2.23-3.37-2.74-4.77-.51-1.38-.76-2.8-.76-4.21,0-2.75.89-4.98,2.73-6.82,1.84-1.84,4.05-2.73,6.77-2.73,1.72,0,3.33.41,4.79,1.22,1.48.82,2.79,2.03,3.89,3.6.18.26.48.42.79.42.32.04.62-.14.81-.39,1.31-1.68,2.7-2.93,4.14-3.71,1.41-.77,2.95-1.15,4.57-1.15,2.72,0,4.93.89,6.77,2.73,1.84,1.84,2.73,4.07,2.73,6.82,0,1.41-.26,2.82-.76,4.21Z"/>
    </g>
  </g>
</svg>