<?xml version="1.0" encoding="UTF-8"?>
<svg id="_레이어_2" data-name="레이어 2" xmlns="http://www.w3.org/2000/svg" viewBox="0 0 42 38.65">
  <g id="_레이어_1-2" data-name="레이어 1">
    <path d="m21,38.65c-.24,0-.48-.09-.67-.26l-2.05-1.85c-3.52-3.24-6.48-6.07-8.79-8.42-2.33-2.37-4.21-4.53-5.6-6.4-1.42-1.92-2.43-3.69-3.01-5.27-.59-1.6-.89-3.25-.89-4.89,0-3.27,1.12-6.04,3.32-8.24C5.52,1.11,8.27,0,11.5,0c2.06,0,4,.5,5.76,1.48,1.4.78,2.66,1.84,3.77,3.17,1.25-1.41,2.57-2.5,3.94-3.25,1.71-.93,3.57-1.4,5.53-1.4,3.23,0,5.98,1.11,8.18,3.31,2.2,2.2,3.32,4.97,3.32,8.24,0,1.64-.3,3.29-.89,4.89-.58,1.58-1.59,3.35-3.01,5.27-1.39,1.88-3.27,4.03-5.6,6.4-2.31,2.35-5.26,5.18-8.78,8.41l-2.06,1.86c-.19.17-.43.26-.67.26ZM11.5,2c-2.72,0-4.93.89-6.77,2.73-1.84,1.84-2.73,4.07-2.73,6.82,0,1.41.26,2.82.76,4.21.51,1.4,1.44,3.01,2.74,4.77,1.33,1.8,3.15,3.89,5.42,6.19,2.29,2.33,5.21,5.14,8.71,8.34l1.37,1.24,1.38-1.25c3.49-3.21,6.42-6.01,8.7-8.34,2.26-2.31,4.08-4.39,5.42-6.19,1.3-1.77,2.23-3.37,2.74-4.77.51-1.38.76-2.8.76-4.21,0-2.75-.89-4.98-2.73-6.82-1.84-1.84-4.05-2.73-6.77-2.73-1.62,0-3.16.39-4.57,1.15-1.44.78-2.83,2.03-4.14,3.71-.19.25-.49.42-.81.39-.32,0-.61-.16-.79-.42-1.11-1.57-2.42-2.78-3.89-3.6-1.46-.81-3.07-1.22-4.79-1.22Z"/>
  </g>
</svg>