<?xml version="1.0" encoding="UTF-8"?>
<svg id="_레이어_2" data-name="레이어 2" xmlns="http://www.w3.org/2000/svg" viewBox="0 0 43.5 47.5">
  <g id="_레이어_1-2" data-name="레이어 1">
    <g>
      <circle cx="6.25" cy="23.75" r="4.25" style="fill: #fff; stroke: #000; stroke-miterlimit: 10;"/>
      <circle cx="37.25" cy="6.25" r="4.25" style="fill: #fff; stroke: #000; stroke-miterlimit: 10;"/>
      <circle cx="37.25" cy="41.25" r="4.25" style="fill: #fff; stroke: #000; stroke-miterlimit: 10;"/>
      <path d="m37.25,35.5c-1.95,0-3.67.97-4.71,2.46l-20.95-12.1c.26-.66.41-1.37.41-2.11s-.15-1.46-.41-2.11l20.95-12.1c1.04,1.48,2.76,2.46,4.71,2.46,3.17,0,5.75-2.58,5.75-5.75s-2.58-5.75-5.75-5.75-5.75,2.58-5.75,5.75c0,.8.16,1.55.46,2.24l-20.92,12.08c-1.03-1.55-2.79-2.57-4.79-2.57-3.17,0-5.75,2.58-5.75,5.75s2.58,5.75,5.75,5.75c2,0,3.76-1.02,4.79-2.57l20.92,12.08c-.29.69-.46,1.45-.46,2.24,0,3.17,2.58,5.75,5.75,5.75s5.75-2.58,5.75-5.75-2.58-5.75-5.75-5.75Zm-4.25-29.25c0-2.34,1.91-4.25,4.25-4.25s4.25,1.91,4.25,4.25-1.91,4.25-4.25,4.25-4.25-1.91-4.25-4.25ZM6.25,28c-2.34,0-4.25-1.91-4.25-4.25s1.91-4.25,4.25-4.25,4.25,1.91,4.25,4.25-1.91,4.25-4.25,4.25Zm31,17.5c-2.34,0-4.25-1.91-4.25-4.25s1.91-4.25,4.25-4.25,4.25,1.91,4.25,4.25-1.91,4.25-4.25,4.25Z" style="fill: #111; stroke: #000; stroke-miterlimit: 10;"/>
    </g>
  </g>
</svg>