<?xml version="1.0" encoding="UTF-8"?>
<svg id="_레이어_2" data-name="레이어 2" xmlns="http://www.w3.org/2000/svg" viewBox="0 0 27 25">
  <g id="_레이어_1-2" data-name="레이어 1">
    <g>
      <path d="m5.89,9.22c-.51,0-.93.42-.93.93s.42.93.93.93.93-.42.93-.93-.42-.93-.93-.93Z" style="fill: #fff;"/>
      <path d="m15.08,9.13c-.55,0-1,.45-1,1s.45,1,1,1,1-.45,1-1-.45-1-1-1Z" style="fill: #fff;"/>
      <path d="m23.39,0H3.61C1.62,0,0,1.61,0,3.61v11.72c0,1.99,1.62,3.61,3.61,3.61h6.98l2.38,5.59s.16.48.56.48h0c.4,0,.56-.48.56-.48l2.38-5.59h6.92c1.99,0,3.61-1.61,3.61-3.61V3.61c0-1.99-1.62-3.61-3.61-3.61Zm-14.91,10.36c-.01,2.14-2.23,2.2-2.23,2.2-.86,0-1.34-.57-1.34-.57v.39h-1.62v-6.65s0,0,0,0h0c.1.02,1.62,0,1.62,0v2.54c.38-.65,1.48-.64,1.48-.64,2.39.22,2.09,2.73,2.09,2.73Zm2.84-2.52v4.55h-1.58v-4.51c0-.61-.76-.78-.76-.78v-1.59c2.53.1,2.34,2.33,2.34,2.33Zm3.75,4.73c-1.46,0-2.65-1.09-2.65-2.44s1.19-2.44,2.65-2.44,2.65,1.09,2.65,2.44-1.19,2.44-2.65,2.44Zm8.66,0s.02,2.31-2.33,2.31h-.72v-1.5h.43s.99.09.98-1.43c0,0-.19.62-1.58.62,0,0-1.97-.14-1.97-2.06v-.73s.05-1.99,2.21-2.15c0,0,.85-.09,1.38.61v-.49h1.6v4.81Z" style="fill: #fff;"/>
      <path d="m21.22,9.15c-.54,0-.98.44-.98.98s.44.98.98.98.98-.44.98-.98-.44-.98-.98-.98Z" style="fill: #fff;"/>
    </g>
  </g>
</svg>