<?xml version="1.0" encoding="UTF-8"?>
<svg id="_레이어_2" data-name="레이어 2" xmlns="http://www.w3.org/2000/svg" viewBox="0 0 25 25">
  <g id="_레이어_1-2" data-name="레이어 1">
    <g>
      <path d="m19.12,4.46c-.81,0-1.47.66-1.47,1.47s.66,1.47,1.47,1.47,1.47-.66,1.47-1.47-.66-1.47-1.47-1.47Z" style="fill: #fff;"/>
      <path d="m12.6,6.34c-3.39,0-6.16,2.76-6.16,6.16s2.76,6.16,6.16,6.16,6.16-2.76,6.16-6.16-2.76-6.16-6.16-6.16Zm0,10.1c-2.17,0-3.94-1.77-3.94-3.94s1.77-3.94,3.94-3.94,3.94,1.77,3.94,3.94-1.77,3.94-3.94,3.94Z" style="fill: #fff;"/>
      <path d="m17.49,25H7.51c-4.14,0-7.51-3.37-7.51-7.51V7.51C0,3.37,3.37,0,7.51,0h9.98c4.14,0,7.51,3.37,7.51,7.51v9.98c0,4.14-3.37,7.51-7.51,7.51ZM7.51,2.35c-2.84,0-5.16,2.31-5.16,5.16v9.98c0,2.84,2.31,5.16,5.16,5.16h9.98c2.84,0,5.16-2.31,5.16-5.16V7.51c0-2.84-2.31-5.16-5.16-5.16H7.51Z" style="fill: #fff;"/>
    </g>
  </g>
</svg>