<?xml version="1.0" encoding="UTF-8"?>
<svg id="_레이어_2" data-name="레이어 2" xmlns="http://www.w3.org/2000/svg" viewBox="0 0 35 35">
  <g id="_레이어_2-2" data-name=" 레이어 2">
    <g>
      <rect x="0" y="0" width="35" height="35" rx="17.5" ry="17.5" transform="translate(35 35) rotate(180)" style="fill: #fff; stroke-width: 0px;"/>
      <path d="m26.45,16.79l-7.03-7.03c-.39-.39-1.02-.39-1.41,0s-.39,1.02,0,1.41l5.33,5.32h-14.07c-.55,0-1,.45-1,1s.45,1,1,1h14.07l-5.33,5.33c-.39.39-.39,1.02,0,1.41.2.2.45.29.71.29s.51-.1.71-.29l7.03-7.03c.19-.19.29-.44.29-.71s-.11-.52-.29-.71Z" style="fill: #111; stroke-width: 0px;"/>
    </g>
  </g>
</svg>